<svg width="32" height="33" viewBox="0 0 32 33" fill="none" xmlns="http://www.w3.org/2000/svg">
<path fill-rule="evenodd" clip-rule="evenodd" d="M2.17957 6.6665C3.05501 6.6665 3.76471 7.37619 3.76471 8.25164V8.54886H11.6637C12.8114 8.54886 13.3324 8.8915 14.2358 10.0787L15.8465 12.3136H30.2624C31.222 12.3136 32 13.1068 32 14.0852V25.6008C32 26.5792 31.222 27.3724 30.2624 27.3724H11.1493C10.1897 27.3724 9.41174 26.5792 9.41174 25.6008V20.3498H8.03056C7.20288 20.3498 6.41436 19.9729 5.68079 19.3563C5.51511 19.217 5.35997 19.0716 5.21619 18.924L4.96562 18.652L4.906 18.5825L3.73127 18.5832C3.58119 19.3026 2.94348 19.843 2.17957 19.843H1.58514C0.709691 19.843 0 19.1333 0 18.2578V8.25164C0 7.37619 0.709691 6.6665 1.58514 6.6665H2.17957ZM3.76471 17.6423H5.3697L5.542 17.8741L5.64335 17.9969C5.66442 18.0215 5.68754 18.048 5.71264 18.0762C5.88231 18.2671 6.07526 18.4583 6.28641 18.6358C6.80818 19.0744 7.34414 19.3496 7.85956 19.4002L8.03056 19.4087H9.41174V16.7807L8.78495 16.7809C7.74476 16.7809 7.00673 16.4227 6.5663 15.8019L6.47647 15.6649C6.23717 15.2693 6.14194 14.8715 6.12188 14.4795L6.11768 14.3119H7.05885C7.05885 14.6016 7.11528 14.9025 7.28177 15.1777C7.51253 15.5592 7.9174 15.7976 8.5937 15.8346L8.78495 15.8397H10.6145L12.0877 17.1837C12.6209 17.5716 13.4146 17.5821 14.0576 17.2702C14.5588 17.0271 14.6664 16.8014 14.5092 16.6584L11.2886 13.7286L11.2941 12.5251V12.3136H14.7371L13.5291 10.6377C12.7952 9.67451 12.5004 9.48067 11.6637 9.48067H3.76471V17.6423ZM2.17957 7.45907H1.58514C1.18109 7.45907 0.847652 7.76143 0.798745 8.15223L0.79257 8.25164V18.2578C0.79257 18.6619 1.09492 18.9953 1.48572 19.0442L1.58514 19.0504H2.17957C2.58362 19.0504 2.91705 18.7481 2.96596 18.3573L2.97214 18.2578V8.25164C2.97214 7.84759 2.66978 7.51416 2.27898 7.46525L2.17957 7.45907ZM10.3529 25.5528V16.8741L11.4942 17.9124L11.6621 18.0256C12.5171 18.5551 13.5921 18.5421 14.4684 18.117C15.4765 17.628 15.9294 16.6781 15.1425 15.9622L12.1664 13.2547H30.1961C30.6725 13.2547 31.0588 13.648 31.0588 14.1332V25.5528C31.0588 26.0379 30.6725 26.4312 30.1961 26.4312H11.2157C10.7392 26.4312 10.3529 26.0379 10.3529 25.5528Z" fill="#052E5C"/>
<path d="M20.7059 24.549C23.3049 24.549 25.4118 22.4421 25.4118 19.8431C25.4118 17.2441 23.3049 15.1372 20.7059 15.1372C18.1069 15.1372 16 17.2441 16 19.8431C16 22.4421 18.1069 24.549 20.7059 24.549Z" fill="#0B74E5"/>
<path d="M21.5934 19.6897L20.0494 19.3177C19.8206 19.2622 19.6604 19.0837 19.6604 18.8832C19.6604 18.6339 19.9006 18.4314 20.1955 18.4314H21.1605C21.3759 18.4314 21.5809 18.4879 21.7521 18.5929C21.8303 18.6407 21.9409 18.6251 22.0094 18.5673L22.3079 18.3154C22.3994 18.2381 22.3848 18.112 22.2821 18.0456C21.9615 17.838 21.5715 17.7255 21.1605 17.7255H21.1244V17.1958C21.1244 17.0983 21.0308 17.0193 20.9153 17.0193H20.497C20.3814 17.0193 20.2878 17.0983 20.2878 17.1958V17.7253H20.1955C19.3958 17.7253 18.7542 18.3054 18.8298 18.9932C18.8836 19.4821 19.3281 19.8783 19.8873 20.0128L21.3629 20.3682C21.5916 20.4238 21.7519 20.6023 21.7519 20.8028C21.7519 21.0521 21.5116 21.2546 21.2167 21.2546H20.2517C20.0363 21.2546 19.8314 21.1981 19.6601 21.0931C19.5819 21.0452 19.4714 21.0609 19.4029 21.1187L19.1043 21.3706C19.0128 21.4478 19.0274 21.5738 19.1302 21.6404C19.4507 21.848 19.8408 21.9605 20.2517 21.9605H20.2878V22.4899C20.2878 22.5874 20.3814 22.6664 20.497 22.6664H20.9153C21.0308 22.6664 21.1244 22.5874 21.1244 22.4899V21.9605H21.16C21.7563 21.9605 22.3189 21.6607 22.5121 21.1847C22.7775 20.5308 22.3218 19.8657 21.5934 19.6897Z" fill="white"/>
</svg>
