<svg width="32" height="33" viewBox="0 0 32 33" fill="none" xmlns="http://www.w3.org/2000/svg">
<path d="M0 16.6665C0 7.82995 7.16344 0.666504 16 0.666504C24.8366 0.666504 32 7.82995 32 16.6665C32 25.5031 24.8366 32.6665 16 32.6665C7.16344 32.6665 0 25.5031 0 16.6665Z" fill="#3171F6"/>
<path fill-rule="evenodd" clip-rule="evenodd" d="M16.0002 5.99976C10.1091 5.99976 5.3335 10.4555 5.3335 15.9521C5.3335 19.035 6.83597 21.7902 9.19473 23.6157V27.3331L12.8261 25.4564C13.8287 25.7476 14.8948 25.9045 16.0002 25.9045C21.8912 25.9045 26.6668 21.4487 26.6668 15.9521C26.6668 10.4555 21.8912 5.99976 16.0002 5.99976ZM9.87701 18.0803C10.6612 18.0803 11.3932 18.0758 12.125 18.082C12.5362 18.0855 12.7584 18.2606 12.7962 18.5844C12.8442 18.9943 12.605 19.2663 12.1609 19.2713C11.3233 19.2808 10.4855 19.2749 9.64768 19.2749C9.40587 19.2749 9.16349 19.2834 8.92244 19.2695C8.62187 19.2522 8.32787 19.1927 8.18415 18.8826C8.04006 18.5718 8.14015 18.2929 8.33911 18.0399C9.13968 17.0218 9.9412 16.0046 10.7422 14.9868C10.7898 14.9264 10.8357 14.8647 10.882 14.8042C10.833 14.7158 10.7554 14.7554 10.6949 14.755C10.1336 14.7515 9.57215 14.7555 9.01082 14.751C8.88254 14.75 8.75044 14.7397 8.62701 14.7073C8.36663 14.639 8.20854 14.4306 8.20644 14.1819C8.20434 13.9328 8.35768 13.7219 8.61749 13.6486C8.74025 13.614 8.87282 13.602 9.00111 13.6015C9.9252 13.5977 10.8493 13.598 11.7734 13.601C11.9367 13.6015 12.1011 13.6057 12.2597 13.6605C12.6101 13.7814 12.7643 14.1044 12.6219 14.4464C12.4978 14.7441 12.3001 14.9972 12.1027 15.2485C11.4252 16.1107 10.7452 16.9708 10.0663 17.8321C10.0136 17.8989 9.96292 17.9675 9.87701 18.0803ZM14.0567 17.2471C14.0617 17.4254 14.1205 17.6651 14.2747 17.8731C14.6102 18.3256 15.2984 18.3242 15.6337 17.8722C15.9242 17.4804 15.9227 16.8303 15.6319 16.4388C15.4782 16.232 15.273 16.1237 15.0169 16.1086C14.4487 16.0752 14.0509 16.5147 14.0567 17.2471ZM15.8889 15.3524C16.0151 15.1935 16.1404 15.0438 16.3538 15.0004C16.7609 14.9173 17.147 15.1819 17.1525 15.5959C17.1661 16.6318 17.161 17.6679 17.1549 18.704C17.1532 18.9869 16.9789 19.2038 16.7239 19.2905C16.4567 19.3813 16.1783 19.3151 15.9998 19.0899C15.9124 18.9796 15.875 18.9606 15.7531 19.0595C15.2812 19.4421 14.7489 19.509 14.1735 19.3224C13.2505 19.0229 12.8705 18.3037 12.7703 17.4227C12.6626 16.4765 12.9776 15.6644 13.8246 15.1665C14.5277 14.7531 15.2421 14.7879 15.8889 15.3524ZM20.7838 17.1507C20.7824 17.4159 20.8448 17.6633 21.0047 17.8782C21.3324 18.3188 22.0136 18.3223 22.348 17.8878C22.6494 17.4961 22.6504 16.8304 22.353 16.4345C22.1979 16.2281 21.9918 16.1216 21.7364 16.1081C21.1766 16.0784 20.7862 16.5064 20.7838 17.1507ZM19.4806 17.2759C19.4411 15.9451 20.3142 14.9508 21.556 14.9126C22.8756 14.872 23.8436 15.7593 23.883 17.0528C23.9229 18.3625 23.1194 19.2916 21.8803 19.4159C20.5341 19.5508 19.4614 18.5699 19.4806 17.2759ZM19.0266 16.2454C19.0266 17.0483 19.0306 17.8512 19.025 18.6541C19.0218 19.1133 18.6166 19.4238 18.1809 19.3138C17.9192 19.2478 17.7236 18.9702 17.7231 18.6467C17.7211 17.274 17.7223 15.9013 17.7223 14.5286C17.7223 14.2869 17.7189 14.045 17.7231 13.8034C17.7301 13.405 17.9837 13.1464 18.3649 13.1427C18.7586 13.1388 19.0226 13.3984 19.0252 13.8109C19.0302 14.6224 19.0266 15.4339 19.0266 16.2454Z" fill="white"/>
</svg>
