<svg width="32" height="32" viewBox="0 0 32 32" fill="none" xmlns="http://www.w3.org/2000/svg">
<path d="M16 32C24.8366 32 32 24.8366 32 16C32 7.16344 24.8366 0 16 0C7.16344 0 0 7.16344 0 16C0 24.8366 7.16344 32 16 32Z" fill="#EE0033"/>
<path d="M14.2558 5.97534H12.0931C11.545 5.97534 11.0193 6.19307 10.6318 6.58063C10.2442 6.96819 10.0265 7.49383 10.0265 8.04193V23.9618C10.0265 24.2332 10.0799 24.5019 10.1838 24.7527C10.2877 25.0034 10.4399 25.2312 10.6318 25.4231C10.8237 25.615 11.0515 25.7673 11.3022 25.8711C11.553 25.975 11.8217 26.0284 12.0931 26.0284H14.2558C14.3236 26.0284 14.3908 26.0151 14.4535 25.9891C14.5162 25.9631 14.5731 25.9251 14.6211 25.8771C14.6691 25.8291 14.7071 25.7722 14.7331 25.7095C14.7591 25.6468 14.7724 25.5796 14.7724 25.5118V23.9658C14.7724 23.8288 14.718 23.6974 14.6211 23.6005C14.5242 23.5036 14.3928 23.4492 14.2558 23.4492H10.8986V8.55156H14.2558C14.3926 8.5505 14.5235 8.49519 14.6196 8.39777C14.7157 8.30034 14.7692 8.16876 14.7684 8.03191V6.49199C14.7684 6.35566 14.7145 6.22485 14.6185 6.12807C14.5225 6.0313 14.3921 5.9764 14.2558 5.97534Z" fill="white"/>
<path d="M19.9069 5.97559H17.7442C17.6073 5.97585 17.4762 6.0304 17.3795 6.12726C17.2828 6.22412 17.2285 6.35538 17.2285 6.49223V8.03216C17.2285 8.16901 17.2828 8.30027 17.3795 8.39713C17.4762 8.49399 17.6073 8.54854 17.7442 8.54881H21.1024V23.4514H17.7442C17.6073 23.4517 17.4762 23.5062 17.3795 23.6031C17.2828 23.7 17.2285 23.8312 17.2285 23.9681V25.511C17.2285 25.6478 17.2828 25.7791 17.3795 25.876C17.4762 25.9728 17.6073 26.0274 17.7442 26.0276H19.9069C20.1788 26.0282 20.4481 25.975 20.6994 25.8713C20.9507 25.7675 21.1791 25.6152 21.3715 25.4231C21.5638 25.2309 21.7163 25.0027 21.8203 24.7514C21.9243 24.5002 21.9777 24.2309 21.9775 23.9591V8.04217C21.9775 7.77045 21.9239 7.50139 21.8198 7.2504C21.7157 6.99941 21.5631 6.77141 21.3707 6.57946C21.1784 6.38751 20.9501 6.23537 20.6989 6.13175C20.4477 6.02813 20.1786 5.97506 19.9069 5.97559Z" fill="white"/>
</svg>
