<svg width="33" height="32" viewBox="0 0 33 32" fill="none" xmlns="http://www.w3.org/2000/svg">
<path d="M17.372 6.43674L15.7015 8.10718L15.6179 8.18957L15.0866 8.72211L14.6902 9.11853L14.1588 9.64987L14.0764 9.73226L13.8448 9.9639L13.7624 10.0475H13.7612L12.9779 10.8296V10.8308L12.8955 10.9132C12.6675 11.1417 12.4082 11.3367 12.1254 11.4923C11.9857 11.5687 11.8436 11.6355 11.6967 11.6917C11.3728 11.8163 11.0318 11.8908 10.6854 11.9126C10.474 11.9269 10.2603 11.9209 10.0502 11.8958C9.59643 11.8421 9.14986 11.6964 8.74389 11.4612C8.56957 11.3609 8.39165 11.2558 8.24359 11.109C8.2424 11.109 8.2424 11.109 8.24121 11.1078C8.20897 11.0767 8.17673 11.0445 8.1433 11.0099L5.10091 7.96748L5.03643 7.90301C4.98389 7.8445 4.93613 7.78121 4.89554 7.71315C4.79062 7.53604 4.73535 7.33394 4.73554 7.12808C4.73554 7.09465 4.73673 7.06121 4.74031 7.02898C4.74509 6.97883 4.75225 6.93107 4.7618 6.88569C4.76658 6.86778 4.77016 6.84868 4.77494 6.83196C4.77733 6.8248 4.77971 6.81644 4.78091 6.80927C4.82389 6.66599 4.89434 6.53106 4.99225 6.41047C5.01852 6.37942 5.04479 6.34838 5.07464 6.31853L5.12837 6.26599L8.37016 3.0242H8.37136L10.3355 1.06002C10.7737 0.621812 11.4711 0.602707 11.9308 1.0039L17.372 6.43674Z" fill="#085CA8"/>
<path d="M11.4543 13.7357C11.1928 13.7357 10.9349 13.6772 10.6889 13.565L10.0657 12.9429L9.91283 12.7912L9.88656 12.7638L9.59641 12.4736L8.14447 11.0062C8.17671 11.0396 8.20895 11.0718 8.24238 11.1041C8.39044 11.2509 8.56954 11.3572 8.74507 11.4575C9.15223 11.6927 9.5976 11.8384 10.0513 11.8921C10.2615 11.9184 10.4752 11.9232 10.6866 11.9089C11.0304 11.8874 11.3719 11.8133 11.6979 11.688C11.8436 11.6318 11.9869 11.5662 12.1266 11.4886C12.4024 11.3357 12.6615 11.1435 12.8967 10.9095L12.9791 10.8271V10.8259L13.7624 10.0438H13.7636L13.846 9.9602L14.0776 9.72856L14.16 9.64617L14.6913 9.11483L15.0878 8.71841L15.6191 8.18587L15.7027 8.10348L19.0698 4.73632L20.4585 3.23184L20.4669 3.22348L20.5409 3.14945C20.9648 2.72557 21.6525 2.72557 22.0764 3.14945L22.837 3.91005H22.8382L22.8633 3.93513C22.5266 3.91841 22.1875 4.0402 21.9331 4.28856L19.36 6.81871L19.3337 6.84975L14.8561 11.2557L14.8501 11.2498L13.2012 12.8701L13.1904 12.8832C13.1857 12.8892 13.1498 12.9286 13.0913 12.9871C12.9612 13.1136 12.6901 13.3524 12.3272 13.5244C12.1624 13.602 11.9952 13.6581 11.8292 13.6927C11.7313 13.7118 11.6298 13.725 11.5319 13.7298H11.4543V13.7357Z" fill="#EB2227"/>
<path d="M26.954 9.56974L26.8716 9.65332L23.2251 13.3548L19.3958 17.2426C19.2763 17.3628 19.1477 17.4738 19.0113 17.5745C19.0066 17.5793 19.0018 17.5829 18.9958 17.5877C18.9779 17.6008 18.9588 17.6151 18.9397 17.6282C18.9373 17.6306 18.9349 17.6318 18.9337 17.6342C18.3361 18.0617 17.6195 18.2909 16.8848 18.2897C15.9415 18.2897 15.0854 17.9196 14.4513 17.3178L14.4489 17.3154L14.363 17.2402L13.7039 16.5811L11.8531 14.7291L11.2358 14.1118L11.1498 14.0259C11.2501 14.0426 11.3516 14.0497 11.4543 14.0497H11.4579L11.5403 14.0485C11.6585 14.0438 11.7755 14.0306 11.8913 14.0068C12.0812 13.9674 12.2722 13.9029 12.4597 13.8145C12.8645 13.6235 13.1654 13.3584 13.3098 13.2175C13.366 13.1626 13.4078 13.116 13.4257 13.0957L14.8489 11.6975L14.8549 11.7035L19.7492 6.88915L19.7755 6.8581L22.1528 4.519C22.4728 4.20616 22.9731 4.16556 23.3361 4.41512L23.8997 4.9787C23.9009 4.9787 23.9009 4.97989 23.9009 4.97989L26.9576 8.03661C26.9851 8.06407 27.0101 8.09153 27.034 8.12138C27.3767 8.54407 27.3504 9.17452 26.954 9.56974Z" fill="#EB2227"/>
<path d="M15.1415 5.51714C15.0555 5.60311 14.9134 5.60072 14.8263 5.51356C13.3839 4.06042 11.0281 4.05087 9.57494 5.49326C8.123 6.93565 8.11225 9.29147 9.55583 10.7446L10.6854 11.8837C10.6925 11.8909 10.7009 11.9004 10.7045 11.9088C10.6985 11.9088 10.6937 11.91 10.6878 11.91C10.4824 11.9243 10.2746 11.9183 10.0705 11.8945L9.24061 11.0574C7.62628 9.43117 7.63583 6.79356 9.2621 5.17803C10.8896 3.56371 13.526 3.57445 15.1415 5.20072L15.1451 5.2043C15.2311 5.29147 15.2287 5.43117 15.1415 5.51714ZM16.8681 6.94042L16.554 7.25445L16.0036 6.70042C15.9176 6.61326 15.9176 6.47236 16.0048 6.38639C16.0919 6.30042 16.2317 6.30042 16.3188 6.38759L16.8681 6.94042Z" fill="#099DD9"/>
<path d="M12.1373 11.4849C12.1337 11.4873 12.1313 11.4885 12.1278 11.4909C11.9916 11.5649 11.8531 11.6306 11.7099 11.6855L10.1719 10.1345C9.20955 9.16495 9.07224 7.64495 9.84478 6.52017C9.87812 6.47183 9.92925 6.43867 9.98698 6.42793C10.0447 6.41719 10.1043 6.42975 10.1528 6.46286C10.2543 6.53211 10.2794 6.67062 10.2102 6.77211C9.55821 7.72017 9.67523 9.00376 10.4872 9.82167L12.1373 11.4849ZM15.9391 7.86823L15.9319 7.8754L15.7003 8.10704L15.6263 8.18107L13.8961 6.43779C13.2537 5.79062 12.3164 5.56376 11.4472 5.84555C11.3313 5.88376 11.206 5.81928 11.1678 5.70346C11.1296 5.58644 11.194 5.46107 11.311 5.42286C12.3379 5.08973 13.4507 5.35958 14.2102 6.12495L15.9391 7.86823Z" fill="#099DD9"/>
<path d="M15.0113 8.79597L14.6973 9.11L12.9636 7.36194C12.5409 6.93448 11.8483 6.93209 11.4221 7.35597C10.9958 7.77985 10.9922 8.4712 11.4161 8.89747L12.5337 10.0246C12.6197 10.1106 12.6197 10.2515 12.5325 10.3387C12.4466 10.4246 12.3057 10.4246 12.2185 10.3375L11.0997 9.2103C10.5051 8.6097 10.5086 7.63776 11.108 7.04194C11.7086 6.44612 12.6818 6.4509 13.2764 7.0503L15.0113 8.79597Z" fill="#099DD9"/>
<path d="M14.0848 9.72393L14.0776 9.73109L13.846 9.96274L13.772 10.0368L12.0334 8.28632C11.9475 8.20035 11.9475 8.05945 12.0346 7.97229C12.1218 7.88632 12.2627 7.88632 12.3487 7.97348L14.0848 9.72393Z" fill="#099DD9"/>
<path d="M7.05672 30.0761C7.22269 30.0761 7.34567 30.0475 7.42687 29.9902C7.50806 29.9329 7.5606 29.8457 7.58567 29.7275C7.6012 29.6534 7.59165 29.5902 7.5606 29.5388C7.52836 29.4875 7.45672 29.4242 7.34448 29.3502L6.9015 29.0445C6.8012 28.974 6.72478 28.9024 6.67224 28.8284C6.6197 28.7543 6.58985 28.6779 6.5803 28.5979C6.57075 28.5179 6.57672 28.4308 6.59582 28.3376C6.64359 28.1108 6.75582 27.9317 6.93254 27.8003C7.10926 27.6702 7.3612 27.6045 7.68956 27.6045C7.81732 27.6045 7.9403 27.62 8.05732 27.6511C8.17433 27.6821 8.2615 27.7167 8.3212 27.7549C8.34627 27.7717 8.36418 27.7872 8.37612 27.8015C8.38687 27.8158 8.39045 27.8349 8.38568 27.8588L8.32956 28.1203C8.31523 28.1836 8.27941 28.2027 8.2197 28.1788C8.15523 28.1526 8.0609 28.1263 7.93553 28.1012C7.81015 28.0761 7.69672 28.063 7.59523 28.063C7.32538 28.063 7.17135 28.1526 7.13314 28.3329C7.11881 28.3961 7.12956 28.4487 7.16179 28.4917C7.19523 28.5346 7.26687 28.5931 7.37553 28.6684L7.7803 28.943C7.89851 29.023 7.98687 29.1042 8.04657 29.1854C8.10508 29.2666 8.1409 29.349 8.15284 29.4337C8.16478 29.5185 8.15881 29.6152 8.13732 29.7251C8.10747 29.8672 8.04657 29.9985 7.95582 30.1203C7.86508 30.2421 7.73732 30.34 7.57373 30.4176C7.40896 30.494 7.20836 30.5323 6.97194 30.5323C6.81314 30.5323 6.67224 30.5143 6.54926 30.4773C6.42508 30.4415 6.3415 30.4081 6.29612 30.377C6.26508 30.3555 6.24478 30.3388 6.23642 30.3269C6.22806 30.3149 6.22687 30.297 6.23164 30.2731L6.28776 30.0117C6.3009 29.9531 6.33672 29.9329 6.39762 29.9531C6.63284 30.0367 6.85254 30.0761 7.05672 30.0761ZM9.25015 30.1024C9.39463 30.1024 9.56657 30.0726 9.76597 30.014C9.82329 29.9985 9.84597 30.02 9.83403 30.0761L9.78269 30.3233C9.77672 30.3472 9.76597 30.3663 9.75045 30.3806C9.73493 30.3949 9.71105 30.4093 9.67881 30.4236C9.53075 30.4976 9.35761 30.5346 9.15821 30.5346C8.98627 30.5346 8.8406 30.5024 8.72239 30.4379C8.60418 30.3734 8.52179 30.2708 8.47642 30.1311C8.43105 29.9914 8.42985 29.8134 8.47523 29.5985L8.55284 29.2391C8.59702 29.029 8.67105 28.8534 8.77612 28.7137C8.8812 28.5729 9.00657 28.469 9.15344 28.4033C9.3003 28.3364 9.4603 28.303 9.63224 28.303C9.83045 28.303 9.98806 28.34 10.1051 28.414C10.1313 28.4284 10.1493 28.4415 10.1588 28.4558C10.1684 28.4702 10.1707 28.4893 10.1648 28.5131L10.1122 28.7603C10.0991 28.8164 10.0681 28.8379 10.0179 28.8224C9.93911 28.7949 9.86627 28.7734 9.8006 28.7579C9.73493 28.7424 9.65373 28.734 9.55702 28.734C9.29672 28.734 9.13075 28.9024 9.05911 29.2391L8.9815 29.5985C8.94329 29.7812 8.95165 29.9102 9.00657 29.9878C9.06508 30.0642 9.14508 30.1024 9.25015 30.1024ZM11.2657 28.7257C11.0639 28.7257 10.8513 28.7591 10.6293 28.826C10.5719 28.8415 10.5493 28.82 10.5612 28.7639L10.6102 28.5287C10.6149 28.5048 10.6257 28.4857 10.6412 28.4702C10.6567 28.4546 10.6806 28.4415 10.714 28.4284C10.8 28.3949 10.9027 28.3651 11.0245 28.34C11.1463 28.3149 11.2764 28.3018 11.4149 28.3018C11.5809 28.3018 11.717 28.3293 11.8233 28.383C11.9296 28.4367 12.0024 28.5203 12.0418 28.6314C12.0812 28.7436 12.0848 28.8785 12.0502 29.0385L11.7696 30.3543C11.7648 30.3818 11.7576 30.4009 11.7493 30.4129C11.7409 30.4236 11.723 30.4331 11.6979 30.4391C11.5773 30.4702 11.4615 30.494 11.3516 30.5108C11.2406 30.5275 11.1081 30.5358 10.9516 30.5358C10.7403 30.5358 10.5731 30.5143 10.449 30.4702C10.3248 30.426 10.24 30.3567 10.1958 30.2624C10.1516 30.1681 10.1457 30.0427 10.1791 29.8887L10.1827 29.8696C10.2078 29.7549 10.2448 29.6582 10.2937 29.577C10.3427 29.497 10.4096 29.429 10.4931 29.374C10.5767 29.3191 10.6782 29.2773 10.7988 29.2511C10.9194 29.2236 11.0651 29.2105 11.2346 29.2105H11.5057L11.5415 29.0409C11.5666 28.9203 11.557 28.8379 11.5128 28.7937C11.4687 28.7472 11.3863 28.7257 11.2657 28.7257ZM11.311 30.1179L11.4316 29.5472H11.1606C11.0436 29.5472 10.9552 29.5579 10.8943 29.5782C10.8346 29.5985 10.7905 29.6308 10.763 29.6749C10.7355 29.7179 10.714 29.7788 10.6985 29.8564L10.6925 29.8791C10.677 29.952 10.677 30.0081 10.6925 30.0463C10.7081 30.0845 10.7403 30.112 10.7928 30.1275C10.8442 30.143 10.9242 30.1514 11.0316 30.1514C11.1415 30.1502 11.2334 30.1394 11.311 30.1179ZM13.969 30.4236C13.9654 30.4439 13.9534 30.4618 13.9343 30.4797C13.9182 30.4951 13.8969 30.5041 13.8746 30.5048H13.5188C13.4973 30.5048 13.4818 30.4964 13.471 30.4797C13.4604 30.4631 13.4565 30.443 13.4603 30.4236L13.7313 29.1496C13.7528 29.0481 13.7576 28.9669 13.7469 28.906C13.7361 28.8463 13.7063 28.8021 13.6549 28.7746C13.6048 28.7472 13.5307 28.7329 13.4328 28.7329C13.3146 28.7329 13.1857 28.7472 13.0448 28.7746L12.6937 30.4236C12.6902 30.4463 12.6794 30.4654 12.6603 30.4809C12.6424 30.4964 12.6221 30.5048 12.5994 30.5048H12.2448C12.2221 30.5048 12.2054 30.4964 12.1946 30.4797C12.1839 30.4631 12.1801 30.443 12.1839 30.4236L12.5946 28.494C12.6018 28.4558 12.634 28.4308 12.689 28.4164C12.8251 28.3818 12.9684 28.3531 13.12 28.3329C13.2716 28.3126 13.4113 28.3018 13.5379 28.3018C13.8412 28.3018 14.049 28.3687 14.1612 28.5024C14.2746 28.6361 14.2997 28.8511 14.2388 29.146L13.969 30.4236ZM16.6209 30.4379C16.6137 30.4773 16.5839 30.5 16.5337 30.5072C16.4215 30.5251 16.3188 30.5334 16.2245 30.5334C16.0716 30.5334 15.9546 30.5179 15.8734 30.4869C15.7922 30.4558 15.7421 30.3973 15.7194 30.309C15.6967 30.2206 15.7039 30.0917 15.7397 29.9209L15.9964 28.709L15.6896 28.654C15.6394 28.6457 15.6191 28.6194 15.6275 28.5764L15.6657 28.4033C15.6694 28.3817 15.6809 28.3622 15.6979 28.3484C15.7158 28.3329 15.7361 28.3257 15.7576 28.3257H16.0776L16.1457 28.0093C16.154 27.9663 16.1863 27.9412 16.24 27.9317L16.6113 27.8696H16.6281C16.6687 27.8696 16.6842 27.8887 16.6746 27.9281L16.5899 28.3257H16.9803C17.0042 28.3257 17.0221 28.3329 17.0328 28.346C17.0436 28.3603 17.0472 28.3782 17.0424 28.4021L16.9934 28.6302C16.9887 28.6517 16.9767 28.6696 16.9588 28.6851C16.9409 28.7006 16.9206 28.7078 16.8991 28.7078H16.5087L16.2519 29.9197C16.2316 30.0152 16.2269 30.0749 16.2376 30.0988C16.2484 30.1227 16.2878 30.1346 16.3558 30.1346H16.603C16.6567 30.1346 16.6806 30.1537 16.6722 30.1932L16.6209 30.4379ZM18.8752 29.5734C18.8358 29.7573 18.7654 29.9221 18.6627 30.069C18.5635 30.2129 18.4307 30.3306 18.2758 30.4117C18.1206 30.4929 17.9439 30.5346 17.7469 30.5346C17.5522 30.5346 17.3934 30.494 17.2705 30.4117C17.1475 30.3305 17.0675 30.2158 17.0281 30.069C16.9887 29.9221 16.9887 29.7573 17.0281 29.5734L17.0937 29.263C17.1331 29.0791 17.2036 28.9143 17.3051 28.7675C17.4041 28.6229 17.5374 28.5052 17.6931 28.4248C17.8507 28.3436 18.0263 28.3018 18.2209 28.3018C18.4179 28.3018 18.5767 28.3424 18.6973 28.4248C18.8179 28.506 18.8979 28.6206 18.9373 28.7675C18.9767 28.9143 18.9767 29.0791 18.9385 29.263L18.8752 29.5734ZM18.3666 29.5734L18.4322 29.263C18.4657 29.1018 18.4573 28.9752 18.4072 28.8809C18.3558 28.7878 18.2639 28.74 18.129 28.74C17.9952 28.74 17.8842 28.7866 17.7922 28.8809C17.7015 28.974 17.6382 29.1018 17.6048 29.263L17.5391 29.5734C17.5057 29.7346 17.514 29.8612 17.5654 29.9555C17.6167 30.0487 17.7087 30.0964 17.84 30.0964C17.9737 30.0964 18.086 30.0499 18.1779 29.9555C18.2699 29.8612 18.3319 29.7346 18.3666 29.5734ZM22.4573 28.5311C22.3905 28.8487 22.2388 29.0791 22.0036 29.2212C21.7672 29.3633 21.4842 29.4349 21.1534 29.4349C21.1331 29.4349 21.089 29.4337 21.0209 29.4302C20.9528 29.4266 20.9075 29.4254 20.8872 29.423C20.8669 29.4218 20.8418 29.4206 20.8143 29.4194L20.6018 30.426C20.597 30.4487 20.5851 30.4666 20.5684 30.4821C20.5527 30.4955 20.5329 30.5031 20.5122 30.5036H20.1254C20.1063 30.5036 20.0907 30.4964 20.0776 30.4809C20.0713 30.4734 20.0669 30.4645 20.0648 30.4549C20.0627 30.4454 20.063 30.4354 20.0657 30.426L20.6293 27.7705C20.6364 27.7334 20.6531 27.7072 20.677 27.6905C20.7021 27.6737 20.7355 27.6618 20.7773 27.6558C20.9958 27.6224 21.2513 27.6045 21.5439 27.6045C21.8758 27.6045 22.129 27.6737 22.3045 27.8123C22.48 27.9508 22.5337 28.1788 22.4657 28.4952L22.4573 28.5311ZM21.9236 28.5311L21.9307 28.4976C21.9642 28.3364 21.9427 28.2218 21.8639 28.1526C21.7851 28.0833 21.6466 28.0487 21.4484 28.0487C21.3242 28.0487 21.2084 28.0546 21.1021 28.0654L20.9063 28.9836C21.0293 28.9908 21.1427 28.9943 21.2478 28.9943C21.3863 28.9943 21.5009 28.9776 21.5916 28.9442C21.6824 28.9108 21.7552 28.8606 21.809 28.7926C21.8627 28.7257 21.9021 28.6385 21.9236 28.5311ZM23.2979 28.7257C23.0961 28.7257 22.8836 28.7591 22.6615 28.826C22.6042 28.8415 22.5815 28.82 22.5934 28.7639L22.6424 28.5287C22.6472 28.5048 22.6579 28.4857 22.6734 28.4702C22.689 28.4546 22.7128 28.4415 22.7463 28.4284C22.8322 28.3949 22.9349 28.3651 23.0567 28.34C23.1785 28.3149 23.3087 28.3018 23.4472 28.3018C23.6131 28.3018 23.7493 28.3293 23.8555 28.383C23.9618 28.4367 24.0346 28.5203 24.074 28.6314C24.1134 28.7436 24.117 28.8785 24.0824 29.0385L23.8018 30.3543C23.797 30.3818 23.7899 30.4009 23.7815 30.4129C23.7731 30.4236 23.7552 30.4331 23.7302 30.4391C23.6096 30.4702 23.4937 30.494 23.3839 30.5108C23.2728 30.5275 23.1403 30.5358 22.9839 30.5358C22.7725 30.5358 22.6054 30.5143 22.4812 30.4702C22.357 30.426 22.2722 30.3567 22.2281 30.2624C22.1839 30.1681 22.1779 30.0427 22.2113 29.8887L22.2149 29.8696C22.24 29.7549 22.277 29.6582 22.326 29.577C22.3749 29.497 22.4418 29.429 22.5254 29.374C22.609 29.3191 22.7105 29.2773 22.831 29.2511C22.9516 29.2236 23.0973 29.2105 23.2669 29.2105H23.5379L23.5737 29.0409C23.5988 28.9203 23.5893 28.8379 23.5451 28.7937C23.5009 28.7472 23.4185 28.7257 23.2979 28.7257ZM23.3433 30.1179L23.4639 29.5472H23.1928C23.0758 29.5472 22.9875 29.5579 22.9266 29.5782C22.8669 29.5985 22.8227 29.6308 22.7952 29.6749C22.7678 29.7179 22.7463 29.7788 22.7307 29.8564L22.7248 29.8791C22.7093 29.952 22.7093 30.0081 22.7248 30.0463C22.7403 30.0845 22.7725 30.112 22.8251 30.1275C22.8764 30.143 22.9564 30.1514 23.0639 30.1514C23.1737 30.1502 23.2669 30.1394 23.3433 30.1179ZM26.4884 28.3937C26.4866 28.4018 26.4833 28.4095 26.4788 28.4164L25.354 30.6708C25.28 30.8212 25.206 30.9394 25.1331 31.0254C25.0603 31.1114 24.9684 31.1746 24.8597 31.2152C24.751 31.257 24.6113 31.2773 24.4406 31.2773C24.3749 31.2773 24.3033 31.2726 24.2257 31.2618C24.1481 31.2523 24.0872 31.2403 24.043 31.226C23.9916 31.2117 23.969 31.1902 23.9749 31.1603L24.0275 30.9131C24.031 30.894 24.0418 30.8785 24.0609 30.8642C24.0788 30.8499 24.0991 30.8439 24.1206 30.8439H24.1278C24.1612 30.8451 24.2328 30.8499 24.3403 30.857C24.4478 30.8642 24.5206 30.8678 24.5576 30.8678C24.6137 30.8678 24.6627 30.8606 24.7045 30.8475C24.7463 30.8331 24.7833 30.8093 24.8167 30.7734C24.8502 30.7376 24.8836 30.6863 24.9158 30.6194L24.9708 30.5048H24.9146C24.8705 30.5048 24.8299 30.4976 24.7928 30.4845C24.7558 30.4702 24.7236 30.4403 24.6961 30.3926C24.6687 30.3448 24.6519 30.2755 24.6448 30.1848L24.517 28.4176C24.5155 28.4088 24.5163 28.3998 24.5194 28.3914C24.5278 28.3496 24.5576 28.3293 24.6066 28.3293H24.997C25.0149 28.3293 25.0293 28.3364 25.04 28.3496C25.0508 28.3639 25.0555 28.3794 25.0555 28.3985L25.1116 29.9687C25.1116 30.0248 25.1224 30.0534 25.1451 30.0534H25.1809L25.9499 28.3949C25.969 28.3508 26 28.3293 26.0418 28.3293H26.4358C26.4537 28.3293 26.4681 28.3352 26.4788 28.3496C26.4884 28.3603 26.4919 28.3758 26.4884 28.3937Z" fill="#099DD9"/>
<path fill-rule="evenodd" clip-rule="evenodd" d="M22.72 23.9365L20.7021 21.0434L20.4967 20.8547H22.486L23.834 23.0422L23.9427 22.9538L24.757 21.7431C24.9576 21.4458 24.9301 21.0995 24.6448 20.8559H26.5242L24.3522 23.9365L24.351 26.1718L24.7343 26.6267H22.3988L22.7284 26.1777C22.7272 25.4338 22.6997 24.6804 22.72 23.9365ZM17.2406 20.8559C17.4018 21.0768 17.4496 21.1544 17.4675 21.3515C17.4806 21.4888 17.471 21.5664 17.4269 21.6941L15.926 26.0464C15.8555 26.2255 15.711 26.4225 15.4997 26.6147H17.1379C17.0161 26.5073 16.9385 26.3783 16.9098 26.2255C16.8836 26.0858 16.8848 26.0332 16.9158 25.8995L17.249 24.8655H19.1546L19.4519 25.6619C19.483 25.7455 19.5009 25.8231 19.5081 25.9126C19.5343 26.21 19.4388 26.4547 19.2024 26.6279H21.7696C21.5176 26.4034 21.286 26.1682 21.1558 25.884L19.2812 20.8559H17.2406ZM18.874 24.1156H17.5104L18.1719 22.2315L18.874 24.1156ZM12.0478 20.8607L13.3385 20.8559H14.9051C15.7672 20.8559 16.4716 21.5604 16.4716 22.4225V22.6159C16.4716 23.478 15.766 24.1347 14.9051 24.161L14.191 24.1825C14.7654 23.9186 15.0054 23.2512 14.9337 22.6494C14.8764 22.167 14.6281 21.7025 14.2137 21.6941L13.9522 21.6882V25.9831C13.9522 26.0667 13.9666 26.1013 14.0107 26.1753C14.0812 26.2923 14.1743 26.4094 14.271 26.5252C14.2961 26.555 14.3212 26.5861 14.3463 26.6159H12.1242C12.1576 26.5753 12.1898 26.5335 12.2209 26.4918C12.2878 26.3998 12.3475 26.3031 12.3928 26.1944C12.4215 26.1252 12.4358 26.0726 12.4358 25.9986V21.3849C12.4275 21.1449 12.1887 21.0076 12.0478 20.8607Z" fill="#085CA8"/>
<path fill-rule="evenodd" clip-rule="evenodd" d="M0 20.8296H1.79343L3.2991 25.1472L4.57552 21.5711C4.5994 21.4326 4.5791 21.3872 4.52537 21.2678C4.45493 21.1221 4.3797 20.9812 4.30806 20.8368H5.64776C5.56776 21.1281 5.45075 21.4493 5.35045 21.743L3.6203 26.7711C3.14746 26.6768 2.62209 26.4905 2.21373 26.1036C1.90687 25.8135 1.79821 25.4827 1.64657 25.0899L0.199403 21.2582C0.144478 21.1066 0.0752239 20.9717 0 20.8296ZM7.16179 22.8535V25.9388C7.16179 26.0642 7.19045 26.0869 7.26806 26.1872L7.62149 26.6481H5.93313L6.21851 26.2123C6.29134 26.0929 6.32358 26.0523 6.32358 25.9126V21.6033L5.84836 20.832H7.59881L10.4322 24.4809V21.5723C10.4322 21.4338 10.4048 21.3884 10.3307 21.269C10.2352 21.1233 10.1361 20.9824 10.0418 20.8379H11.729L11.3767 21.2988C11.2991 21.3991 11.2704 21.4218 11.2704 21.5472V26.7962C10.6316 26.7126 10.037 26.5562 9.50687 25.8791L7.16179 22.8535Z" fill="#EB2227"/>
<path fill-rule="evenodd" clip-rule="evenodd" d="M26.394 22.2515C26.394 22.1274 26.412 22.0044 26.4454 21.8862C26.4812 21.7691 26.5302 21.6557 26.597 21.5447C26.7212 21.3333 26.9015 21.165 27.1343 21.0408C27.3696 20.9166 27.6394 20.8557 27.9523 20.8557C28.0788 20.8557 28.1994 20.87 28.3081 20.9011C28.4191 20.9321 28.5278 20.9799 28.6376 21.0432C28.843 21.1614 29.0054 21.3297 29.1236 21.5471C29.1845 21.6617 29.2323 21.7799 29.2657 21.9029C29.2967 22.0271 29.3134 22.162 29.3134 22.3053C29.3134 22.5023 29.2705 22.7065 29.1833 22.9154C29.0961 23.1232 28.972 23.2999 28.8096 23.4432L29.0114 23.6366C29.0926 23.713 29.1773 23.7847 29.2681 23.8515C29.3588 23.9184 29.4591 23.9757 29.5702 24.0259C29.6812 24.0772 29.797 24.1071 29.9152 24.1166C29.8102 24.2038 29.6979 24.2706 29.5821 24.3184C29.4639 24.3662 29.3409 24.3877 29.2131 24.3877C29.1045 24.3877 28.9934 24.3662 28.8836 24.3184C28.7714 24.273 28.6663 24.2157 28.5672 24.1488C28.4621 24.0772 28.3678 24.0044 28.283 23.9351L28.0573 23.7453C28.0418 23.7453 28.0215 23.7453 27.9964 23.7477C27.9714 23.75 27.9415 23.7536 27.9057 23.7596L27.772 23.7715C27.5128 23.7715 27.2788 23.7023 27.0675 23.5685C26.8561 23.4348 26.6902 23.2509 26.5743 23.0193C26.517 22.9047 26.4717 22.7841 26.4418 22.6563C26.4108 22.5238 26.394 22.3912 26.394 22.2515ZM27.194 22.2599C27.194 22.3482 27.2036 22.4414 27.2251 22.5369C27.2406 22.6038 27.2645 22.6885 27.3003 22.7912C27.3552 22.9536 27.4364 23.0874 27.5427 23.19C27.6478 23.2951 27.7779 23.3465 27.932 23.3465C28.1314 23.3465 28.2794 23.2677 28.3737 23.11C28.4681 22.9524 28.5182 22.7506 28.5182 22.5035C28.5182 22.4402 28.5099 22.3375 28.4979 22.199C28.4836 22.0963 28.4645 22.002 28.4406 21.9172C28.4167 21.8288 28.3893 21.7512 28.3582 21.6844C28.2985 21.5506 28.2197 21.4491 28.117 21.3823C28.0167 21.313 27.8961 21.2796 27.76 21.2796C27.6967 21.2796 27.637 21.2915 27.5821 21.3154C27.5284 21.3369 27.477 21.3703 27.4317 21.4145C27.3493 21.4933 27.2872 21.596 27.2502 21.7202C27.2131 21.8444 27.1928 21.9805 27.1928 22.1274V22.2026C27.1928 22.2265 27.194 22.2432 27.194 22.2599ZM30.3642 22.2885C30.4483 22.2758 30.5286 22.2448 30.5994 22.1978C30.6687 22.15 30.7224 22.0868 30.7618 22.0103C30.7821 21.9733 30.7952 21.9351 30.8072 21.8957C30.8167 21.8563 30.8215 21.8145 30.8215 21.7727C30.8215 21.645 30.7881 21.5375 30.7164 21.4503C30.6472 21.3656 30.5409 21.3226 30.3988 21.3226H30.3654V22.2885H30.3642ZM30.3642 22.5118V23.2963C30.3642 23.4921 30.4251 23.6247 30.5457 23.6927V23.7106H29.4078V23.6927C29.5224 23.6271 29.5821 23.4969 29.5821 23.3023V21.3823C29.5821 21.2653 29.5702 21.1733 29.5511 21.1077C29.5296 21.0408 29.4818 20.9811 29.409 20.9297V20.9214H30.7893C30.9433 20.9214 31.0818 20.9488 31.2036 21.0062C31.3266 21.0635 31.4233 21.1459 31.4937 21.2605C31.5308 21.3154 31.557 21.3787 31.5749 21.448C31.5952 21.5148 31.6048 21.59 31.6048 21.6677C31.6048 21.7727 31.5714 21.885 31.5021 22.0091C31.4352 22.1321 31.3051 22.242 31.1093 22.3375L31.6561 23.2593C31.7863 23.4587 31.9045 23.6008 32.012 23.6856L31.532 23.7214L31.4114 23.725H31.2991C31.1905 23.725 31.1057 23.7071 31.0424 23.67C30.9815 23.6342 30.9218 23.5638 30.8681 23.4587L30.3642 22.5118Z" fill="#EB2227"/>
</svg>
