<svg width="20" height="21" viewBox="0 0 20 21" fill="none" xmlns="http://www.w3.org/2000/svg">
<mask id="mask0_1_13101" style="mask-type:luminance" maskUnits="userSpaceOnUse" x="1" y="2" width="18" height="17">
<path d="M18.3332 2.16663H1.6665V18.8333H18.3332V2.16663Z" fill="white"/>
</mask>
<g mask="url(#mask0_1_13101)">
<path d="M7.9165 9.66656C8.60686 9.66656 9.1665 9.10691 9.1665 8.41656C9.1665 7.7262 8.60686 7.16656 7.9165 7.16656C7.22615 7.16656 6.6665 7.7262 6.6665 8.41656C6.6665 9.10691 7.22615 9.66656 7.9165 9.66656Z" fill="#0A68FF"/>
<path d="M13.3333 12.5833C13.3333 13.2736 12.7736 13.8333 12.0833 13.8333C11.3929 13.8333 10.8333 13.2736 10.8333 12.5833C10.8333 11.8929 11.3929 11.3333 12.0833 11.3333C12.7736 11.3333 13.3333 11.8929 13.3333 12.5833Z" fill="#0A68FF"/>
<path d="M12.2557 9.42253C12.5811 9.09709 12.5811 8.56945 12.2557 8.24402C11.9302 7.91858 11.4026 7.91858 11.0771 8.24402L7.74384 11.5773C7.4184 11.9028 7.4184 12.4304 7.74384 12.7558C8.06927 13.0813 8.59691 13.0813 8.92235 12.7558L12.2557 9.42253Z" fill="#0A68FF"/>
<path fill-rule="evenodd" clip-rule="evenodd" d="M3.33317 3.83325C2.4127 3.83325 1.6665 4.57944 1.6665 5.49992V8.14295C1.6665 8.36396 1.7543 8.57592 1.91058 8.73221L2.49978 9.32141C3.15066 9.97228 3.15066 11.0276 2.49978 11.6784L1.91058 12.2676C1.7543 12.4239 1.6665 12.6359 1.6665 12.8569V15.4999C1.6665 16.4204 2.4127 17.1666 3.33317 17.1666H16.6665C17.587 17.1666 18.3332 16.4204 18.3332 15.4999V12.8569C18.3332 12.627 18.2387 12.4125 18.0798 12.2584L17.4998 11.6784C16.8489 11.0276 16.8489 9.97228 17.4998 9.32141L18.0798 8.74143C18.2387 8.58737 18.3332 8.37288 18.3332 8.14295V5.49992C18.3332 4.57945 17.587 3.83325 16.6665 3.83325H3.33317ZM16.3213 12.8569L16.6665 13.2022V15.4999H3.33317V13.2021L3.6783 12.8569C4.98004 11.5552 4.98004 9.44464 3.6783 8.1429L3.33317 7.79777V5.49992H16.6665V7.79766L16.3213 8.1429C15.0195 9.44464 15.0195 11.5552 16.3213 12.8569Z" fill="#0A68FF"/>
</g>
</svg>
