<svg width="20" height="20" viewBox="0 0 20 20" fill="none" xmlns="http://www.w3.org/2000/svg">
<g clip-path="url(#clip0_1_13145)">
<g clip-path="url(#clip1_1_13145)">
<g clip-path="url(#clip2_1_13145)">
<path fill-rule="evenodd" clip-rule="evenodd" d="M8.58611 1.45901C9.29411 0.583011 10.6301 0.582011 11.3391 1.45901L12.1171 2.42201C12.2571 2.59501 12.4871 2.66901 12.7011 2.61201L13.8971 2.29001C14.9841 1.99701 16.0661 2.78201 16.1241 3.90801L16.1871 5.14401C16.1991 5.36601 16.3401 5.56101 16.5481 5.64101L17.7041 6.08401C18.7561 6.48601 19.1701 7.75601 18.5551 8.70101L17.8801 9.74001C17.7581 9.92701 17.7581 10.168 17.8801 10.354L18.5551 11.392C19.1691 12.335 18.7581 13.606 17.7051 14.01L16.5481 14.452C16.3411 14.532 16.1981 14.727 16.1881 14.949L16.1241 16.185C16.0661 17.31 14.9861 18.096 13.8971 17.803L12.7011 17.482C12.4861 17.424 12.2571 17.499 12.1171 17.672L11.3391 18.634C10.6311 19.51 9.29611 19.512 8.58711 18.634L7.80811 17.672C7.66811 17.499 7.43911 17.424 7.22411 17.482L6.02911 17.803C4.94211 18.096 3.85911 17.312 3.80211 16.185L3.73811 14.949C3.72711 14.727 3.58511 14.532 3.37811 14.452L2.22011 14.01C1.16911 13.607 0.754109 12.337 1.37011 11.392L2.04511 10.354C2.16511 10.168 2.16511 9.92701 2.04511 9.74001L1.37011 8.70101C0.756109 7.75801 1.16811 6.48701 2.22011 6.08401L3.37711 5.64101C3.58511 5.56101 3.72711 5.36601 3.73811 5.14401L3.80211 3.90801C3.86011 2.78401 4.93911 1.99801 6.02911 2.29001L7.22411 2.61101C7.43911 2.66901 7.66811 2.59501 7.80811 2.42101L8.58611 1.45901ZM10.4001 2.21801C10.1751 1.93901 9.75011 1.93801 9.52511 2.21801L8.74711 3.18001C8.30711 3.72401 7.58711 3.95901 6.91111 3.77701L5.71511 3.45501C5.36911 3.36301 5.02511 3.61201 5.00711 3.97001L4.94311 5.20601C4.90711 5.90501 4.46211 6.51801 3.80911 6.76801L2.65311 7.21101C2.31811 7.33901 2.18611 7.74301 2.38211 8.04301L3.05711 9.08101C3.43911 9.66701 3.43911 10.425 3.05711 11.011L2.38211 12.049C2.18711 12.349 2.31711 12.753 2.65211 12.882L3.80911 13.324C4.46211 13.574 4.90711 14.187 4.94311 14.886L5.00711 16.122C5.02611 16.48 5.36911 16.73 5.71511 16.637L6.91111 16.315C7.06311 16.275 7.21711 16.255 7.37011 16.255C7.89611 16.255 8.40611 16.49 8.74711 16.912L9.52511 17.875C9.75011 18.153 10.1751 18.154 10.4001 17.875L11.1791 16.912C11.6191 16.368 12.3391 16.134 13.0141 16.315L14.2101 16.637C14.5561 16.73 14.9001 16.481 14.9181 16.122L14.9821 14.886C15.0181 14.187 15.4631 13.574 16.1171 13.324L17.2731 12.882C17.6071 12.754 17.7391 12.35 17.5431 12.049L16.8681 11.011C16.4871 10.425 16.4871 9.66701 16.8681 9.08101L17.5431 8.04301C17.7391 7.74301 17.6081 7.33901 17.2731 7.21101L16.1171 6.76801C15.4631 6.51801 15.0181 5.90501 14.9821 5.20601L14.9181 3.97001C14.9001 3.61201 14.5571 3.36201 14.2101 3.45501L13.0151 3.77701C12.3391 3.95901 11.6191 3.72401 11.1791 3.18001L10.4001 2.21801ZM12.9771 6.97101C13.1871 7.18101 13.2101 7.50601 13.0471 7.74101L12.9771 7.82401L7.34511 13.457C7.22811 13.574 7.07311 13.633 6.91911 13.633C6.76411 13.633 6.60911 13.574 6.49211 13.457C6.28211 13.247 6.25911 12.922 6.42211 12.687L6.49211 12.603L12.1241 6.97101C12.3601 6.73501 12.7421 6.73501 12.9771 6.97101ZM11.9471 11.22C12.6131 11.22 13.1541 11.76 13.1541 12.426C13.1541 13.092 12.6131 13.633 11.9471 13.633C11.2821 13.633 10.7401 13.092 10.7401 12.426C10.7401 11.761 11.2821 11.22 11.9471 11.22ZM7.52211 6.79401C8.18811 6.79401 8.72911 7.33601 8.72911 8.00101C8.72911 8.66701 8.18811 9.20801 7.52211 9.20801C6.85711 9.20801 6.31511 8.66701 6.31511 8.00101C6.31511 7.33601 6.85711 6.79401 7.52211 6.79401Z" fill="#0D5CB6"/>
</g>
</g>
</g>
<defs>
<clipPath id="clip0_1_13145">
<rect width="20" height="20" fill="white" transform="translate(0 0.0100098)"/>
</clipPath>
<clipPath id="clip1_1_13145">
<rect width="20" height="20" fill="white" transform="translate(0 0.0100098)"/>
</clipPath>
<clipPath id="clip2_1_13145">
<rect width="20" height="20" fill="white" transform="translate(0 0.0100098)"/>
</clipPath>
</defs>
</svg>
